<svg xmlns="http://www.w3.org/2000/svg" viewBox="0 0 640 400" width="640" height="400">
  <rect width="640" height="400" fill="#f2f2ee"/>
  <rect x="24" y="24" width="592" height="352" rx="8" fill="#fbfbf8" stroke="#d3d6cd"/>
  <rect x="40" y="40" width="170" height="130" rx="6" fill="#e9e4d4" stroke="#97a197"/>
  <rect x="40" y="200" width="170" height="130" rx="6" fill="#e9e4d4" stroke="#97a197"/>
  <path d="M 150 100 C 270 92 360 110 440 150" fill="none" stroke="#d6e1e1" stroke-width="26" stroke-linecap="round"/>
  <path d="M 150 270 C 290 268 380 245 450 205" fill="none" stroke="#d6e1e1" stroke-width="26" stroke-linecap="round"/>
  <path d="M 420 180 C 340 182 260 184 205 185" fill="none" stroke="#d6e1e1" stroke-width="26" stroke-linecap="round"/>
  <path d="M 150 100 C 270 92 360 110 440 150" fill="none" stroke="#6f7a73" stroke-width="2" stroke-dasharray="7 6"/>
  <path d="M 150 270 C 290 268 380 245 450 205" fill="none" stroke="#6f7a73" stroke-width="2" stroke-dasharray="7 6"/>
  <path d="M 420 180 C 340 182 260 184 205 185" fill="none" stroke="#6f7a73" stroke-width="2" stroke-dasharray="7 6"/>
  <g fill="#0c8474"><circle cx="205" cy="96" r="6"/><circle cx="265" cy="94" r="6"/><circle cx="325" cy="104" r="6"/><circle cx="385" cy="122" r="6"/></g>
  <g fill="#1b4fd4"><circle cx="215" cy="270" r="6"/><circle cx="280" cy="266" r="6"/><circle cx="345" cy="254" r="6"/><circle cx="405" cy="234" r="6"/></g>
  <g fill="#6f7a73"><circle cx="250" cy="185" r="5"/><circle cx="310" cy="184" r="5"/><circle cx="370" cy="182" r="5"/></g>
  <circle cx="150" cy="100" r="9" fill="#fbfbf8" stroke="#14201a" stroke-width="2.5"/>
  <circle cx="150" cy="270" r="9" fill="#fbfbf8" stroke="#14201a" stroke-width="2.5"/>
  <circle cx="490" cy="180" r="74" fill="#fbfbf8" stroke="#14201a" stroke-width="3"/>
  <circle cx="478" cy="138" r="9" fill="#e8753a"/>
  <circle cx="450" cy="190" r="9" fill="#e8753a"/>
  <circle cx="515" cy="208" r="9" fill="#e8753a"/>
  <text x="490" y="95" font-family="Georgia, serif" font-size="24" font-weight="700" fill="#14201a" text-anchor="middle">Berlin</text>
  <g transform="translate(440 300)">
    <rect x="0" y="40" width="14" height="14" fill="#1b4fd4" opacity=".75"/>
    <rect x="20" y="30" width="14" height="24" fill="#1b4fd4" opacity=".75"/>
    <rect x="40" y="18" width="14" height="36" fill="#1b4fd4" opacity=".75"/>
    <rect x="60" y="26" width="14" height="28" fill="#1b4fd4" opacity=".75"/>
    <rect x="80" y="10" width="14" height="44" fill="#1b4fd4" opacity=".75"/>
    <rect x="100" y="2" width="14" height="52" fill="#1b4fd4" opacity=".75"/>
    <path d="M 0 44 L 34 34 L 54 22 L 74 32 L 94 14 L 116 8" fill="none" stroke="#e8753a" stroke-width="3" stroke-dasharray="7 4"/>
  </g>
  <text x="56" y="366" font-family="Georgia, serif" font-size="30" font-weight="700" fill="#033303">Airlift 1948–49</text>
</svg>
